<svg width="17" height="17" viewBox="0 0 17 17" fill="none" xmlns="http://www.w3.org/2000/svg">
<path d="M14.6052 6.41802L10.6227 5.84146L8.84245 2.24615C8.79382 2.14771 8.71383 2.06802 8.61501 2.01959C8.36719 1.89771 8.06603 1.99927 7.94212 2.24615L6.16186 5.84146L2.17942 6.41802C2.06962 6.43365 1.96924 6.48521 1.89238 6.56334C1.79947 6.65847 1.74826 6.78646 1.75003 6.91918C1.75179 7.0519 1.80638 7.1785 1.90179 7.27115L4.78314 10.0696L4.10241 14.0211C4.08645 14.1131 4.09666 14.2076 4.13189 14.294C4.16711 14.3805 4.22595 14.4554 4.30172 14.5102C4.37749 14.565 4.46716 14.5976 4.56057 14.6042C4.65398 14.6108 4.74739 14.5913 4.8302 14.5477L8.39228 12.6821L11.9544 14.5477C12.0516 14.5993 12.1645 14.6165 12.2728 14.5977C12.5457 14.5508 12.7292 14.293 12.6822 14.0211L12.0014 10.0696L14.8828 7.27115C14.9612 7.19459 15.013 7.09459 15.0286 6.98521C15.071 6.71177 14.8796 6.45865 14.6052 6.41802Z" fill="#FEA250"/>
</svg>
